<mxfile host="app.diagrams.net" modified="2023-08-14T01:00:46.396Z" agent="Mozilla/5.0 (Windows NT 10.0; Win64; x64) AppleWebKit/537.36 (KHTML, like Gecko) Chrome/115.0.0.0 Safari/537.36" etag="5zlWs9Ghs9859Lr8ZxQS" version="21.6.6" type="device">
  <diagram id="C5RBs43oDa-KdzZeNtuy" name="Page-1">
    <mxGraphModel dx="2099" dy="1675" grid="1" gridSize="10" guides="1" tooltips="1" connect="1" arrows="1" fold="1" page="1" pageScale="1" pageWidth="827" pageHeight="1169" math="0" shadow="0">
      <root>
        <mxCell id="WIyWlLk6GJQsqaUBKTNV-0" />
        <mxCell id="WIyWlLk6GJQsqaUBKTNV-1" parent="WIyWlLk6GJQsqaUBKTNV-0" />
        <mxCell id="WIyWlLk6GJQsqaUBKTNV-6" value="Crear" style="rhombus;whiteSpace=wrap;html=1;shadow=0;fontFamily=Helvetica;fontSize=12;align=center;strokeWidth=1;spacing=6;spacingTop=-4;" parent="WIyWlLk6GJQsqaUBKTNV-1" vertex="1">
          <mxGeometry x="160" y="190" width="100" height="80" as="geometry" />
        </mxCell>
        <mxCell id="WIyWlLk6GJQsqaUBKTNV-11" value="Usuarios" style="rounded=1;whiteSpace=wrap;html=1;fontSize=12;glass=0;strokeWidth=1;shadow=0;" parent="WIyWlLk6GJQsqaUBKTNV-1" vertex="1">
          <mxGeometry x="354" y="210" width="120" height="40" as="geometry" />
        </mxCell>
        <mxCell id="hKvbF2lr2sX63TXNmMgr-0" value="Registros_Caja" style="rounded=1;whiteSpace=wrap;html=1;fontSize=12;glass=0;strokeWidth=1;shadow=0;" vertex="1" parent="WIyWlLk6GJQsqaUBKTNV-1">
          <mxGeometry x="-50" y="210" width="120" height="40" as="geometry" />
        </mxCell>
        <mxCell id="hKvbF2lr2sX63TXNmMgr-1" value="" style="endArrow=none;html=1;rounded=0;exitX=1;exitY=0.5;exitDx=0;exitDy=0;" edge="1" parent="WIyWlLk6GJQsqaUBKTNV-1" source="WIyWlLk6GJQsqaUBKTNV-6">
          <mxGeometry width="50" height="50" relative="1" as="geometry">
            <mxPoint x="304" y="280" as="sourcePoint" />
            <mxPoint x="354" y="230" as="targetPoint" />
          </mxGeometry>
        </mxCell>
        <mxCell id="hKvbF2lr2sX63TXNmMgr-2" value="" style="endArrow=none;html=1;rounded=0;exitX=1;exitY=0.5;exitDx=0;exitDy=0;entryX=0;entryY=0.5;entryDx=0;entryDy=0;" edge="1" parent="WIyWlLk6GJQsqaUBKTNV-1" target="WIyWlLk6GJQsqaUBKTNV-6">
          <mxGeometry width="50" height="50" relative="1" as="geometry">
            <mxPoint x="70" y="229.5" as="sourcePoint" />
            <mxPoint x="164" y="229.5" as="targetPoint" />
          </mxGeometry>
        </mxCell>
        <mxCell id="hKvbF2lr2sX63TXNmMgr-3" value="Elegir" style="rhombus;whiteSpace=wrap;html=1;shadow=0;fontFamily=Helvetica;fontSize=12;align=center;strokeWidth=1;spacing=6;spacingTop=-4;" vertex="1" parent="WIyWlLk6GJQsqaUBKTNV-1">
          <mxGeometry x="-50" y="340" width="100" height="80" as="geometry" />
        </mxCell>
        <mxCell id="hKvbF2lr2sX63TXNmMgr-4" value="" style="endArrow=none;html=1;rounded=0;entryX=0.408;entryY=1.053;entryDx=0;entryDy=0;entryPerimeter=0;" edge="1" parent="WIyWlLk6GJQsqaUBKTNV-1" target="hKvbF2lr2sX63TXNmMgr-0">
          <mxGeometry width="50" height="50" relative="1" as="geometry">
            <mxPoint y="340" as="sourcePoint" />
            <mxPoint x="50" y="290" as="targetPoint" />
          </mxGeometry>
        </mxCell>
        <mxCell id="hKvbF2lr2sX63TXNmMgr-5" value="" style="endArrow=none;html=1;rounded=0;entryX=0.408;entryY=1.053;entryDx=0;entryDy=0;entryPerimeter=0;" edge="1" parent="WIyWlLk6GJQsqaUBKTNV-1">
          <mxGeometry width="50" height="50" relative="1" as="geometry">
            <mxPoint x="1" y="508" as="sourcePoint" />
            <mxPoint y="420" as="targetPoint" />
          </mxGeometry>
        </mxCell>
        <mxCell id="hKvbF2lr2sX63TXNmMgr-6" value="Egreso_caja" style="rounded=1;whiteSpace=wrap;html=1;fontSize=12;glass=0;strokeWidth=1;shadow=0;" vertex="1" parent="WIyWlLk6GJQsqaUBKTNV-1">
          <mxGeometry x="-60" y="510" width="120" height="40" as="geometry" />
        </mxCell>
        <mxCell id="hKvbF2lr2sX63TXNmMgr-7" value="" style="endArrow=none;html=1;rounded=0;entryX=0.408;entryY=1.053;entryDx=0;entryDy=0;entryPerimeter=0;" edge="1" parent="WIyWlLk6GJQsqaUBKTNV-1">
          <mxGeometry width="50" height="50" relative="1" as="geometry">
            <mxPoint y="210" as="sourcePoint" />
            <mxPoint x="-1" y="122" as="targetPoint" />
          </mxGeometry>
        </mxCell>
        <mxCell id="hKvbF2lr2sX63TXNmMgr-8" value="Elegir" style="rhombus;whiteSpace=wrap;html=1;shadow=0;fontFamily=Helvetica;fontSize=12;align=center;strokeWidth=1;spacing=6;spacingTop=-4;" vertex="1" parent="WIyWlLk6GJQsqaUBKTNV-1">
          <mxGeometry x="-50" y="40" width="100" height="80" as="geometry" />
        </mxCell>
        <mxCell id="hKvbF2lr2sX63TXNmMgr-9" value="Ingreso_caja" style="rounded=1;whiteSpace=wrap;html=1;fontSize=12;glass=0;strokeWidth=1;shadow=0;" vertex="1" parent="WIyWlLk6GJQsqaUBKTNV-1">
          <mxGeometry x="-60" y="-90" width="120" height="40" as="geometry" />
        </mxCell>
        <mxCell id="hKvbF2lr2sX63TXNmMgr-10" value="" style="endArrow=none;html=1;rounded=0;entryX=0.408;entryY=1.053;entryDx=0;entryDy=0;entryPerimeter=0;" edge="1" parent="WIyWlLk6GJQsqaUBKTNV-1">
          <mxGeometry width="50" height="50" relative="1" as="geometry">
            <mxPoint x="1" y="40" as="sourcePoint" />
            <mxPoint y="-48" as="targetPoint" />
          </mxGeometry>
        </mxCell>
        <mxCell id="hKvbF2lr2sX63TXNmMgr-11" value="Asignar" style="rhombus;whiteSpace=wrap;html=1;shadow=0;fontFamily=Helvetica;fontSize=12;align=center;strokeWidth=1;spacing=6;spacingTop=-4;" vertex="1" parent="WIyWlLk6GJQsqaUBKTNV-1">
          <mxGeometry x="364" y="340" width="100" height="80" as="geometry" />
        </mxCell>
        <mxCell id="hKvbF2lr2sX63TXNmMgr-12" value="" style="endArrow=none;html=1;rounded=0;entryX=0.408;entryY=1.053;entryDx=0;entryDy=0;entryPerimeter=0;" edge="1" parent="WIyWlLk6GJQsqaUBKTNV-1">
          <mxGeometry width="50" height="50" relative="1" as="geometry">
            <mxPoint x="415" y="340" as="sourcePoint" />
            <mxPoint x="414" y="252" as="targetPoint" />
          </mxGeometry>
        </mxCell>
        <mxCell id="hKvbF2lr2sX63TXNmMgr-13" value="" style="endArrow=none;html=1;rounded=0;entryX=0.408;entryY=1.053;entryDx=0;entryDy=0;entryPerimeter=0;" edge="1" parent="WIyWlLk6GJQsqaUBKTNV-1">
          <mxGeometry width="50" height="50" relative="1" as="geometry">
            <mxPoint x="415" y="508" as="sourcePoint" />
            <mxPoint x="414" y="420" as="targetPoint" />
          </mxGeometry>
        </mxCell>
        <mxCell id="hKvbF2lr2sX63TXNmMgr-14" value="Roles" style="rounded=1;whiteSpace=wrap;html=1;fontSize=12;glass=0;strokeWidth=1;shadow=0;" vertex="1" parent="WIyWlLk6GJQsqaUBKTNV-1">
          <mxGeometry x="354" y="510" width="120" height="40" as="geometry" />
        </mxCell>
        <mxCell id="hKvbF2lr2sX63TXNmMgr-15" value="Hacer" style="rhombus;whiteSpace=wrap;html=1;shadow=0;fontFamily=Helvetica;fontSize=12;align=center;strokeWidth=1;spacing=6;spacingTop=-4;" vertex="1" parent="WIyWlLk6GJQsqaUBKTNV-1">
          <mxGeometry x="564" y="190" width="100" height="80" as="geometry" />
        </mxCell>
        <mxCell id="hKvbF2lr2sX63TXNmMgr-16" value="" style="endArrow=none;html=1;rounded=0;exitX=1;exitY=0.5;exitDx=0;exitDy=0;entryX=0;entryY=0.5;entryDx=0;entryDy=0;" edge="1" parent="WIyWlLk6GJQsqaUBKTNV-1" target="hKvbF2lr2sX63TXNmMgr-15">
          <mxGeometry width="50" height="50" relative="1" as="geometry">
            <mxPoint x="474" y="229.5" as="sourcePoint" />
            <mxPoint x="568" y="229.5" as="targetPoint" />
          </mxGeometry>
        </mxCell>
        <mxCell id="hKvbF2lr2sX63TXNmMgr-17" value="Solicitudes" style="rounded=1;whiteSpace=wrap;html=1;fontSize=12;glass=0;strokeWidth=1;shadow=0;" vertex="1" parent="WIyWlLk6GJQsqaUBKTNV-1">
          <mxGeometry x="758" y="210" width="120" height="40" as="geometry" />
        </mxCell>
        <mxCell id="hKvbF2lr2sX63TXNmMgr-18" value="" style="endArrow=none;html=1;rounded=0;exitX=1;exitY=0.5;exitDx=0;exitDy=0;" edge="1" parent="WIyWlLk6GJQsqaUBKTNV-1">
          <mxGeometry width="50" height="50" relative="1" as="geometry">
            <mxPoint x="664" y="230" as="sourcePoint" />
            <mxPoint x="758" y="230" as="targetPoint" />
          </mxGeometry>
        </mxCell>
        <mxCell id="hKvbF2lr2sX63TXNmMgr-19" value="" style="endArrow=none;html=1;rounded=0;entryX=0.408;entryY=1.053;entryDx=0;entryDy=0;entryPerimeter=0;" edge="1" parent="WIyWlLk6GJQsqaUBKTNV-1">
          <mxGeometry width="50" height="50" relative="1" as="geometry">
            <mxPoint x="413.5" y="210" as="sourcePoint" />
            <mxPoint x="412.5" y="122" as="targetPoint" />
          </mxGeometry>
        </mxCell>
        <mxCell id="hKvbF2lr2sX63TXNmMgr-20" value="Pertenece" style="rhombus;whiteSpace=wrap;html=1;shadow=0;fontFamily=Helvetica;fontSize=12;align=center;strokeWidth=1;spacing=6;spacingTop=-4;" vertex="1" parent="WIyWlLk6GJQsqaUBKTNV-1">
          <mxGeometry x="363.5" y="40" width="100" height="80" as="geometry" />
        </mxCell>
        <mxCell id="hKvbF2lr2sX63TXNmMgr-21" value="Empresa" style="rounded=1;whiteSpace=wrap;html=1;fontSize=12;glass=0;strokeWidth=1;shadow=0;" vertex="1" parent="WIyWlLk6GJQsqaUBKTNV-1">
          <mxGeometry x="353.5" y="-90" width="120" height="40" as="geometry" />
        </mxCell>
        <mxCell id="hKvbF2lr2sX63TXNmMgr-22" value="" style="endArrow=none;html=1;rounded=0;entryX=0.408;entryY=1.053;entryDx=0;entryDy=0;entryPerimeter=0;" edge="1" parent="WIyWlLk6GJQsqaUBKTNV-1">
          <mxGeometry width="50" height="50" relative="1" as="geometry">
            <mxPoint x="414.5" y="40" as="sourcePoint" />
            <mxPoint x="413.5" y="-48" as="targetPoint" />
          </mxGeometry>
        </mxCell>
        <mxCell id="hKvbF2lr2sX63TXNmMgr-23" value="Programar" style="rhombus;whiteSpace=wrap;html=1;shadow=0;fontFamily=Helvetica;fontSize=12;align=center;strokeWidth=1;spacing=6;spacingTop=-4;" vertex="1" parent="WIyWlLk6GJQsqaUBKTNV-1">
          <mxGeometry x="640" y="398" width="100" height="80" as="geometry" />
        </mxCell>
        <mxCell id="hKvbF2lr2sX63TXNmMgr-24" value="" style="endArrow=none;html=1;rounded=0;entryX=1;entryY=1;entryDx=0;entryDy=0;exitX=0;exitY=0;exitDx=0;exitDy=0;" edge="1" parent="WIyWlLk6GJQsqaUBKTNV-1" source="hKvbF2lr2sX63TXNmMgr-23" target="WIyWlLk6GJQsqaUBKTNV-11">
          <mxGeometry width="50" height="50" relative="1" as="geometry">
            <mxPoint x="691" y="398" as="sourcePoint" />
            <mxPoint x="690" y="310" as="targetPoint" />
          </mxGeometry>
        </mxCell>
        <mxCell id="hKvbF2lr2sX63TXNmMgr-25" value="" style="endArrow=none;html=1;rounded=0;entryX=1;entryY=1;entryDx=0;entryDy=0;exitX=0.582;exitY=-0.033;exitDx=0;exitDy=0;exitPerimeter=0;" edge="1" parent="WIyWlLk6GJQsqaUBKTNV-1" source="hKvbF2lr2sX63TXNmMgr-26" target="hKvbF2lr2sX63TXNmMgr-23">
          <mxGeometry width="50" height="50" relative="1" as="geometry">
            <mxPoint x="916" y="610" as="sourcePoint" />
            <mxPoint x="720" y="450" as="targetPoint" />
          </mxGeometry>
        </mxCell>
        <mxCell id="hKvbF2lr2sX63TXNmMgr-26" value="Eventos" style="rounded=1;whiteSpace=wrap;html=1;fontSize=12;glass=0;strokeWidth=1;shadow=0;" vertex="1" parent="WIyWlLk6GJQsqaUBKTNV-1">
          <mxGeometry x="758" y="630" width="120" height="40" as="geometry" />
        </mxCell>
        <mxCell id="hKvbF2lr2sX63TXNmMgr-28" value="Recibe" style="rhombus;whiteSpace=wrap;html=1;shadow=0;fontFamily=Helvetica;fontSize=12;align=center;strokeWidth=1;spacing=6;spacingTop=-4;" vertex="1" parent="WIyWlLk6GJQsqaUBKTNV-1">
          <mxGeometry x="620" y="-40" width="100" height="80" as="geometry" />
        </mxCell>
        <mxCell id="hKvbF2lr2sX63TXNmMgr-29" value="Notificaciones" style="rounded=1;whiteSpace=wrap;html=1;fontSize=12;glass=0;strokeWidth=1;shadow=0;" vertex="1" parent="WIyWlLk6GJQsqaUBKTNV-1">
          <mxGeometry x="827" y="-260" width="120" height="40" as="geometry" />
        </mxCell>
        <mxCell id="hKvbF2lr2sX63TXNmMgr-31" value="" style="endArrow=none;html=1;rounded=0;entryX=0;entryY=1;entryDx=0;entryDy=0;" edge="1" parent="WIyWlLk6GJQsqaUBKTNV-1" target="hKvbF2lr2sX63TXNmMgr-28">
          <mxGeometry width="50" height="50" relative="1" as="geometry">
            <mxPoint x="473.5" y="210" as="sourcePoint" />
            <mxPoint x="523.5" y="160" as="targetPoint" />
          </mxGeometry>
        </mxCell>
        <mxCell id="hKvbF2lr2sX63TXNmMgr-32" value="" style="endArrow=none;html=1;rounded=0;entryX=0.369;entryY=1.05;entryDx=0;entryDy=0;entryPerimeter=0;exitX=1;exitY=0;exitDx=0;exitDy=0;" edge="1" parent="WIyWlLk6GJQsqaUBKTNV-1" source="hKvbF2lr2sX63TXNmMgr-28" target="hKvbF2lr2sX63TXNmMgr-29">
          <mxGeometry width="50" height="50" relative="1" as="geometry">
            <mxPoint x="690" y="-20" as="sourcePoint" />
            <mxPoint x="861.5" y="-210" as="targetPoint" />
          </mxGeometry>
        </mxCell>
      </root>
    </mxGraphModel>
  </diagram>
</mxfile>
